<svg xmlns="http://www.w3.org/2000/svg" 
viewBox="0 0 320.77 317.83"><defs>
<style>.cls-1{isolation:isolate;}.cls-2{fill:#b84d33;}.cls-3{fill:#8a201d;opacity:0.4;mix-blend-mode:multiply;}.cls-4,.cls-7{fill:#fff;}.cls-5{fill:#070308;}.cls-6{fill:#b62a24;}.cls-7{font-size:54px;stroke:#fff;stroke-miterlimit:10;stroke-width:2px;font-family:InkFree, Ink Free;}.cls-8{font-size:20.37px;fill:#ede22b;font-family:TwCenMT-Condensed, Tw Cen MT Condensed;letter-spacing:0.2em;}.cls-9{letter-spacing:0.18em;}.cls-10{letter-spacing:0.2em;}</style></defs><title>Recurso 2</title><g class="cls-1"><g id="Capa_2" data-name="Capa 2"><g id="Capa_1-2" data-name="Capa 1"><ellipse class="cls-2" cx="160.39" cy="158.91" rx="160.39" ry="158.91"/><path class="cls-3" d="M152.69,218.56l-13.16-2.23L127.81,210l-9-9.77-5.31-12.13-1-13.19,3.33-12.81,7.35-11L133.7,143l12.64-4.24,13.35.06,12.61,4.35,10.5,8.17,7.26,11.1,3.22,12.84-1.16,13.18-5.41,12.09-9.08,9.69-11.77,6.25Z"/><path class="cls-4" d="M23.89,205.65c0-.7,4.38-2.09,9.78-3.1L294.72,154c5.41-1,9.94,1.15,10.08,4.79s-4.2,7.27-9.64,8.08L33.83,205.46C28.39,206.27,23.91,206.35,23.89,205.65Z"/>
<path class="cls-4" d="M300.52,145.73c0-.7-4.5-.61-9.94.19L29.24,184.52c-5.44.8-9.78,4.44-9.64,8.08s4.68,5.79,10.08,4.79l261.05-48.55C296.14,147.82,300.54,146.43,300.52,145.73ZM176.73,168.82a.37.37,0,0,1,0-.73A.37.37,0,0,1,176.73,168.82Z"/><path class="cls-4" d="M195.11,162.42,188.3,152l-9.86-7.67-11.83-4.08-12.53-.05-11.87,4-9.92,7.59-6.9,10.37-3.13,12,1,12.38,5,11.39,8.45,9.17,11,6L160,215.15l12.37-2,11-5.86,8.52-9.1L197,186.84l1.09-12.37Zm-7-5.74a.43.43,0,0,1,0-.87A.43.43,0,0,1,188.14,156.69Z"/><path class="cls-5" d="M197.09,161.57l-7.2-11-10.42-8.1L167,138.15l-13.24-.05-12.54,4.21-10.48,8-7.29,11L120.11,174l1,13.08,5.27,12,8.93,9.69L147,215.07,160,217.29l13.07-2.11,11.67-6.2,9-9.62,5.37-12,1.15-13.07ZM195,186.31,190.16,197l-8,8.58-10.42,5.53L160,213l-11.65-2L138,205.42l-8-8.65L125.34,186l-.93-11.67L127.37,163l6.51-9.78,9.36-7.15,11.19-3.76,11.82,0,11.16,3.85,9.3,7.23,1.56,2.39a.42.42,0,0,1,.3.45l4.56,7L196,174.64Z"/>
<ellipse class="cls-6" cx="160.2" cy="177.68" rx="21.44" ry="21.24"/>
<text class="cls-7" transform="translate(43 119.8) scale(1.01 1)">SushiWow!</text>
<text class="cls-8" transform="translate(80.15 246.22) scale(1.01 1)">CAFE &amp; SUSHI<tspan class="cls-9" x="129.59" y="0">B</tspan>
<tspan class="cls-10" x="140.6" y="0">AR</tspan></text></g></g></g></svg>