<svg xmlns="http://www.w3.org/2000/svg" viewBox="0 0 244.37 198.6"><defs><style>.cls-1{fill:#ffc107;}.cls-2{fill:none;}.cls-2,.cls-3{stroke:#ffc107;stroke-miterlimit:10;stroke-width:2px;}.cls-3{fill:#fbf5df;}</style></defs><title>plato</title><g id="Capa_2" data-name="Capa 2"><g id="OBJECTS"><path id="_Trazado_de_recorte_" data-name="&lt;Trazado de recorte&gt;" class="cls-1" d="M1,15.91V69.65A121.19,121.19,0,0,0,122.19,190.84h0A121.19,121.19,0,0,0,243.37,69.65V15.91Z"/><path id="_Trazado_de_recorte_2" data-name="&lt;Trazado de recorte&gt;" class="cls-2" d="M1,15.91V69.65A121.19,121.19,0,0,0,122.19,190.84h0A121.19,121.19,0,0,0,243.37,69.65V15.91Z"/><path class="cls-3" d="M72.5,178.31h99.37a9.19,9.19,0,0,1,9.19,9.19V197.6a0,0,0,0,1,0,0H63.31a0,0,0,0,1,0,0V187.5A9.19,9.19,0,0,1,72.5,178.31Z"/><rect class="cls-3" x="1" y="1" width="242.37" height="25.89" rx="11.29" ry="11.29"/></g></g></svg>