<?xml version="1.0" encoding="utf-8"?>
<!-- Generator: Adobe Illustrator 21.0.0, SVG Export Plug-In . SVG Version: 6.00 Build 0)  -->
<svg version="1.1" id="Capa_1" xmlns="http://www.w3.org/2000/svg" xmlns:xlink="http://www.w3.org/1999/xlink" x="0px" y="0px"
	 viewBox="0 0 512 511" style="enable-background:new 0 0 512 511;" xml:space="preserve">
<style type="text/css">
	.st0{fill:#FFC107;}
</style>
<path class="st0" d="M507.8,67.3c-5-6.1-13.3-8.4-20.7-5.7L17.4,231.4C8,234.8,1.4,243,0.2,252.9c-1.2,9.9,3.1,19.4,11.3,24.9
	l67.1,45.8c6.5,4.4,14.9,4.9,21.8,1.2l145.6-76.8l-113.5,84.7c-5.3,4-8.5,10.3-8.5,17v78.5c0,8.1,4.4,15.5,11.6,19.4
	c7.2,3.9,15.8,3.5,22.6-1l51-33.8l50.2,34.2c4.4,3,9.6,4.6,14.9,4.6c1.8,0,3.6-0.2,5.3-0.6c7-1.5,13.3-5.8,17.1-11.9L509.3,88.8
	C513.4,82.1,512.8,73.4,507.8,67.3z M273.2,420.2l-51.9-35.4c-3.6-2.5-7.8-3.7-11.9-3.7c-4.1,0-8.1,1.2-11.7,3.6l-43.5,28.9v-59.2
	l200.4-149.6c8.9-6.7,11.2-18.8,5.2-28.3c-6-9.4-17.9-12.6-27.8-7.4l-240.8,127l-56.8-38.8l432.5-156.3L273.2,420.2z"/>
</svg>
