<?xml version="1.0" encoding="utf-8"?>
<!-- Generator: Adobe Illustrator 21.0.0, SVG Export Plug-In . SVG Version: 6.00 Build 0)  -->
<svg version="1.1" id="Bold" xmlns="http://www.w3.org/2000/svg" xmlns:xlink="http://www.w3.org/1999/xlink" x="0px" y="0px"
	 viewBox="0 0 512 512" style="enable-background:new 0 0 512 512;" xml:space="preserve">
<style type="text/css">
	.st0{fill:#FFC107;}
</style>
<path class="st0" d="M494,296.4c15.3-128.6-7.3-209.7-48.1-246.5l0,0c-65.8-62.7-288.2-72-366.9,2.8C43.6,89.3,31.1,143,29.7,209.5
	c-1.4,66.5-3,191.1,113.1,224.9h0.1l-0.1,51.6c0,0-0.8,20.9,12.6,25.1c15.3,4.9,22.2-4.8,69.7-61.5c79.4,6.9,140.5-8.9,147.4-11.2
	C388.5,433,479.3,420.9,494,296.4L494,296.4z M232.9,413.2c0,0-50.3,62.7-65.9,79c-5.1,5.3-10.7,4.8-10.6-5.7
	c0-6.9,0.4-85.7,0.4-85.7c-98.4-28.2-92.6-134.3-91.5-189.8c1.1-55.5,11.2-101,41.2-131.6c69.1-64.8,264-50.3,313.7-3.6
	c60.7,53.8,39.1,205.9,39.2,211.1c-12.5,104-86,110.6-99.6,115.1C353.9,403.9,300.3,417.7,232.9,413.2L232.9,413.2z"/>
<path class="st0" d="M260.7,91.7c-8.2,0-8.2,12.8,0,12.9c63.7,0.5,116.2,44.9,116.8,126.4c0,8.6,12.6,8.5,12.5-0.1h0
	C389.3,143.1,332,92.2,260.7,91.7L260.7,91.7z"/>
<path class="st0" d="M344.6,217.5c-0.2,8.5,12.4,8.9,12.5,0.3c1-48.4-28.8-88.3-84.9-92.5c-8.2-0.6-9.1,12.3-0.9,12.9
	C319.9,141.9,345.5,175.1,344.6,217.5L344.6,217.5z"/>
<path class="st0" d="M331.1,272.5c-10.5-6.1-21.3-2.3-25.7,3.7l-9.3,12c-4.7,6.1-13.5,5.3-13.5,5.3c-64.3-17-81.5-84.3-81.5-84.3
	s-0.8-9.1,5.1-14l11.6-9.6c5.8-4.6,9.5-15.7,3.6-26.6c-15.8-28.5-26.4-38.4-31.8-45.9c-5.7-7.1-14.2-8.7-23.1-3.9h-0.2
	c-18.5,10.8-38.7,31-32.2,51.8c11,21.9,31.3,91.8,95.9,144.7c30.4,25,78.4,50.6,98.8,56.5l0.2,0.3c20.1,6.7,39.6-14.3,50.1-33.3V329
	c4.6-9.2,3.1-17.9-3.7-23.6C363.4,293.7,345.3,280.8,331.1,272.5L331.1,272.5z"/>
<path class="st0" d="M280.9,172.9c20.5,1.2,30.4,11.9,31.5,33.9c0.4,8.6,12.9,8,12.5-0.6c-1.4-28.7-16.3-44.7-43.3-46.2
	C273.4,159.5,272.6,172.4,280.9,172.9L280.9,172.9z"/>
</svg>
